<svg preserveAspectRatio="none" width="100%" height="100%" overflow="visible" style="display: block;" viewBox="0 0 125 125" fill="none" xmlns="http://www.w3.org/2000/svg">
<g id="account_circle" clip-path="url(#clip0_0_4)">
<path id="Vector" d="M62.5 10.4167C33.75 10.4167 10.4167 33.75 10.4167 62.5C10.4167 91.25 33.75 114.583 62.5 114.583C91.25 114.583 114.583 91.25 114.583 62.5C114.583 33.75 91.25 10.4167 62.5 10.4167ZM62.5 26.0417C71.1459 26.0417 78.125 33.0208 78.125 41.6667C78.125 50.3125 71.1459 57.2917 62.5 57.2917C53.8542 57.2917 46.875 50.3125 46.875 41.6667C46.875 33.0208 53.8542 26.0417 62.5 26.0417ZM62.5 100C49.4792 100 37.9688 93.3334 31.25 83.2292C31.4063 72.8646 52.0834 67.1875 62.5 67.1875C72.8646 67.1875 93.5938 72.8646 93.75 83.2292C87.0313 93.3334 75.5209 100 62.5 100Z" fill="var(--fill-0, white)"/>
<g id="Vector_2">
</g>
</g>
<defs>
<clipPath id="clip0_0_4">
<rect width="125" height="125" fill="white"/>
</clipPath>
</defs>
</svg>
