<svg width="125" height="125" viewBox="0 0 125 125" fill="none" xmlns="http://www.w3.org/2000/svg">
<g clip-path="url(#clip0_8_58)">
<path d="M69.4277 70.8909C67.9391 70.8909 66.4294 70.9296 64.9059 71.0111C63.3823 75.9313 63.2706 81.67 64.9059 90.7885C66.052 97.1752 74.1974 115.23 80.9241 121.57C83.3108 123.82 86.6478 125 90.3239 125C97.8158 125 106.716 120.092 111.839 109.347C122.325 87.3428 99.6994 70.8909 69.4277 70.8909Z" fill="#1C6399"/>
<path d="M117.168 0C116.455 0 115.682 0.0814837 114.851 0.256091C103.732 2.58808 82.3463 20.1459 64.9268 45.9298C64.9268 45.9298 62.1697 65.9514 62.1697 69.9635C62.1697 71.2673 66.5866 71.9036 72.8555 71.9036C85.8441 71.9036 106.782 69.168 112.775 63.9841C119.407 58.2454 125.53 25.9428 124.964 9.35512C124.803 4.79591 122.65 0 117.168 0Z" fill="#1C6399"/>
<path d="M94.2167 46.4185L117.381 44.7269C117.381 44.7269 113.694 58.7692 106.541 62.793C99.3884 66.8166 79.5682 68.6132 79.5682 68.6132C79.5682 68.6132 87.7101 52.0798 91.0507 48.087C91.8789 47.0937 93.0042 46.5038 94.2167 46.4185ZM96.0338 38.8445L122.332 7.21711C122.332 7.21711 122.339 28.0344 118.118 40.7224C118.118 40.7224 99.3079 42.193 97.4524 42.2397C94.9958 42.3017 94.0664 41.2113 96.0338 38.8445ZM74.8298 68.6132L94.0489 35.4493C94.7059 34.5957 94.9329 33.4317 94.6465 32.3529L91.2638 19.8083L67.7748 45.4524L64.8254 68.8538L74.8298 68.6132ZM96.8864 26.8005C97.4873 28.3757 98.6895 28.7404 100.164 27.2853C101.639 25.8303 121.389 3.63959 121.13 3.15846C121.13 3.15846 111.234 -1.47449 93.8741 16.5955C93.8741 16.5955 96.2853 25.225 96.8864 26.8005ZM65.6991 73.7466L84.4743 94.0322C85.1838 94.7228 85.3654 95.8675 84.9112 96.7834L76.6121 113.6C76.6121 113.6 61.9811 92.3406 65.6991 73.7466ZM91.1452 98.1957L110.535 101.071C110.535 101.071 106.838 115.99 98.6754 119.905C85.0265 126.455 80.1134 117.48 80.1134 117.48L88.332 99.7788C88.8599 98.6226 89.9989 97.9822 91.1452 98.1957ZM70.3535 73.2618L89.1357 92.4995C89.4048 92.7558 89.7263 92.9264 90.0759 93.0002L111.458 96.5038C111.458 96.5038 107.198 84.743 95.9814 78.9228C83.0171 72.1986 70.3535 73.2618 70.3535 73.2618Z" fill="#34E916"/>
<path d="M69.4277 70.8909C67.9391 70.8909 66.4294 70.9296 64.9059 71.0111C63.3823 75.9313 63.2706 81.67 64.9059 90.7885C66.052 97.1752 74.1974 115.23 80.9241 121.57C83.3108 123.82 86.6478 125 90.3239 125C97.8158 125 106.716 120.092 111.839 109.347C122.325 87.3428 99.6994 70.8909 69.4277 70.8909ZM106.248 107.077C101.649 116.724 95.5899 120.553 90.3204 120.553C87.6401 120.553 84.366 119.339 82.8075 117.872C76.8847 112.288 70.7974 100.101 67.9564 89.8416C66.3316 83.9709 66.7195 74.2356 66.7195 74.2356L69.0502 74.1541C87.109 74.1541 101.37 82.1394 106.531 91.6615C109.026 96.2635 108.931 101.451 106.248 107.077Z" fill="#292F33"/>
<path d="M117.168 4.85022C117.975 4.85022 120.435 4.85022 120.596 9.53748C120.952 19.9402 118.52 33.0553 115.714 44.0012C113.823 51.3774 110.172 56.7748 108.397 58.3075C106.44 59.9993 101.887 63.1111 95.4013 64.3721C88.3077 65.7498 80.7004 67.6043 72.8417 67.6043C69.9518 67.6043 67.8342 67.6781 66.5726 67.5228C67.0305 62.7969 68.2814 53.7445 69.0781 47.8736C82.245 28.7055 103.012 7.67111 115.662 5.02096C116.203 4.90844 116.71 4.85022 117.168 4.85022ZM117.168 0C116.455 0 115.682 0.0814837 114.851 0.256091C103.732 2.58808 82.3463 20.1459 64.9268 45.9298C64.9268 45.9298 62.1697 65.9514 62.1697 69.9635C62.1697 71.2673 66.5866 71.9036 72.8555 71.9036C85.8441 71.9036 106.782 69.168 112.775 63.9841C119.407 58.2454 125.53 25.9428 124.964 9.35512C124.803 4.79591 122.65 0 117.168 0Z" fill="#292F33"/>
<path d="M13.1613 109.347C18.284 120.092 27.1807 125 34.6761 125C38.3522 125 41.6892 123.82 44.0759 121.57C50.8026 115.234 58.948 97.1791 60.0941 90.7885C61.7294 81.67 61.6177 75.9351 60.0941 71.0111C58.5706 70.9296 57.0609 70.8909 55.5723 70.8909C25.2936 70.8909 2.67115 87.3428 13.1613 109.347Z" fill="#1C6399"/>
<path d="M7.82886 0C2.34618 0 0.19017 4.79591 0.0364177 9.35123C-0.529671 25.9389 5.59246 58.2454 12.2248 63.9803C18.2176 69.1642 39.1524 71.8998 52.1445 71.8998C58.4134 71.8998 62.8303 71.2635 62.8303 69.9596C62.8303 65.9514 60.0733 45.9257 60.0733 45.9257C42.6502 20.1459 21.2612 2.58808 10.1456 0.256091C9.31397 0.0814836 8.54171 0 7.82886 0Z" fill="#1C6399"/>
<path d="M30.7763 46.4185L7.6157 44.7269C7.6157 44.7269 11.3023 58.7692 18.4552 62.793C25.6081 66.8166 45.4283 68.6132 45.4283 68.6132C45.4283 68.6132 37.2864 52.0798 33.9458 48.087C33.1175 47.0937 31.9923 46.5038 30.7763 46.4185ZM28.9627 38.8445L2.66418 7.21711C2.66418 7.21711 2.65719 28.0344 6.8784 40.7224C6.8784 40.7224 25.6886 42.193 27.5441 42.2397C30.0007 42.3017 30.93 41.2113 28.9627 38.8445ZM50.1667 68.6132L30.9476 35.4493C30.2906 34.5957 30.0636 33.4317 30.35 32.3529L33.7327 19.8083L57.2217 45.4524L60.1711 68.8538L50.1667 68.6132ZM28.1066 26.8005C27.5057 28.3757 26.3035 28.7404 24.8289 27.2853C23.3544 25.8303 3.60416 3.63959 3.86276 3.15846C3.86276 3.15846 13.7588 -1.47449 31.1189 16.5955C31.1224 16.5955 28.7077 25.225 28.1066 26.8005ZM59.2974 73.7466L40.5221 94.0322C39.8127 94.7228 39.6311 95.8675 40.0853 96.7834L48.3844 113.596C48.3809 113.6 63.0154 92.3406 59.2974 73.7466ZM33.848 98.1957L14.4577 101.071C14.4577 101.071 18.1547 115.99 26.3175 119.905C39.9667 126.455 44.8796 117.48 44.8796 117.48L36.661 99.7788C36.1368 98.6226 34.9976 97.9822 33.848 98.1957ZM54.643 73.2618L35.8607 92.4995C35.5917 92.7558 35.2702 92.9264 34.9206 93.0002L13.5387 96.5038C13.5387 96.5038 17.7983 84.743 29.0151 78.9228C41.9759 72.1986 54.643 73.2618 54.643 73.2618Z" fill="#34E916"/>
<path d="M13.1613 109.347C18.284 120.092 27.1807 125 34.6761 125C38.3522 125 41.6892 123.82 44.0759 121.57C50.8026 115.234 58.948 97.1791 60.0941 90.7885C61.7294 81.67 61.6177 75.9351 60.0941 71.0111C58.5706 70.9296 57.0609 70.8909 55.5723 70.8909C25.2936 70.8909 2.67115 87.3428 13.1613 109.347ZM18.4657 91.6577C23.627 82.1356 37.8875 74.1502 55.9463 74.1502L58.277 74.2317C58.277 74.2317 58.6649 83.9709 57.0401 89.8377C54.1991 100.097 48.1118 112.285 42.189 117.868C40.6305 119.339 37.3563 120.55 34.6761 120.55C29.4066 120.55 23.3474 116.724 18.7487 107.074C16.0651 101.451 15.9707 96.2635 18.4657 91.6577Z" fill="#292F33"/>
<path d="M7.82886 4.85022C8.28662 4.85022 8.79331 4.90844 9.33494 5.02096C21.9811 7.67111 42.7515 28.7055 55.9184 47.8736C56.7151 53.7445 57.966 62.7969 58.4239 67.5228C57.1623 67.6781 55.0447 67.6043 52.1548 67.6043C44.2961 67.6043 36.6888 65.7498 29.5952 64.3721C23.1097 63.1111 18.5566 59.9993 16.5997 58.3074C14.8246 56.7709 11.173 51.3774 9.28252 44.0012C6.47654 33.0553 4.04445 19.9402 4.40088 9.53748C4.56162 4.85022 7.01816 4.85022 7.82886 4.85022ZM7.82886 0C2.34618 0 0.19017 4.79591 0.0364177 9.35123C-0.529671 25.9389 5.59246 58.2454 12.2248 63.9803C18.2176 69.1642 39.1524 71.8998 52.1445 71.8998C58.4134 71.8998 62.8303 71.2635 62.8303 69.9596C62.8303 65.9514 60.0733 45.9257 60.0733 45.9257C42.6502 20.1459 21.2612 2.58808 10.1456 0.256091C9.31397 0.0814836 8.54171 0 7.82886 0Z" fill="#292F33"/>
<path d="M76.0075 10.8218C75.134 10.2863 74.0401 10.6394 73.5579 11.6095L63.9833 30.9327C63.9204 31.0608 63.9066 31.1966 63.8715 31.3286C63.4279 31.3014 63.0189 31.2587 62.4982 31.2587C61.9811 31.2587 61.5689 31.2976 61.1285 31.3286C61.0934 31.1966 61.0796 31.0608 61.0167 30.9327L51.4421 11.6095C50.9599 10.6394 49.8627 10.2863 48.989 10.8218C48.1153 11.3534 47.7974 12.5718 48.2796 13.5418L57.5572 32.2675C53.4373 35.3096 61.5757 45.6077 58.8886 67.9808C55.2789 98.0522 62.4982 106.072 62.4982 106.072C62.4982 106.072 69.7211 98.0522 66.1079 67.9808C63.4208 45.6077 71.5592 35.3096 67.4393 32.2675L76.7204 13.5418C77.1991 12.5718 76.8811 11.3534 76.0075 10.8218Z" fill="#292F33"/>
</g>
<defs>
<clipPath id="clip0_8_58">
<rect width="125" height="125" fill="white"/>
</clipPath>
</defs>
</svg>
