<svg width="38" height="38" viewBox="0 0 38 38" fill="none" xmlns="http://www.w3.org/2000/svg">
<g clip-path="url(#clip0_10_13)">
<path d="M37.9819 19.3555C37.9819 17.7987 37.8526 16.6626 37.5728 15.4844H19.3785V22.5112H30.0582C29.8429 24.2575 28.6802 26.8873 26.0964 28.6545L26.0602 28.8897L31.8128 33.2442L32.2114 33.2831C35.8717 29.98 37.9819 25.12 37.9819 19.3555Z" fill="#4285F4"/>
<path d="M19.3785 37.8695C24.6107 37.8695 29.0031 36.1863 32.2114 33.2831L26.0964 28.6545C24.46 29.7695 22.2637 30.5479 19.3785 30.5479C14.254 30.5479 9.90466 27.245 8.35423 22.6796L8.12698 22.6985L2.14524 27.2218L2.06702 27.4343C5.25367 33.6196 11.7993 37.8695 19.3785 37.8695Z" fill="#34A853"/>
<path d="M8.35421 22.6796C7.94512 21.5015 7.70836 20.2391 7.70836 18.9347C7.70836 17.6303 7.94512 16.368 8.33269 15.1898L8.32185 14.9389L2.26516 10.343L2.06699 10.4351C0.753617 13.0018 0 15.8841 0 18.9347C0 21.9853 0.753617 24.8675 2.06699 27.4343L8.35421 22.6796Z" fill="#FBBC05"/>
<path d="M19.3785 7.32138C23.0173 7.32138 25.4719 8.85719 26.8715 10.1406L32.3405 4.92303C28.9817 1.87244 24.6107 0 19.3785 0C11.7993 0 5.25367 4.24976 2.06702 10.4351L8.33271 15.1898C9.90467 10.6245 14.254 7.32138 19.3785 7.32138Z" fill="#EB4335"/>
</g>
<defs>
<clipPath id="clip0_10_13">
<rect width="38" height="38" fill="white"/>
</clipPath>
</defs>
</svg>
